<svg width="450" height="154" viewBox="0 0 450 154" fill="none" xmlns="http://www.w3.org/2000/svg">
<g filter="url(#filter0_i_1003_57)">
<mask id="path-1-outside-1_1003_57" maskUnits="userSpaceOnUse" x="105.04" y="7" width="239" height="49" fill="black">
<rect fill="white" x="105.04" y="7" width="239" height="49"/>
<path d="M146.232 42.128H148.152V50H129.336V42.128H132.216L131.448 38.288H124.92L124.152 42.128H127.032V50H110.616V42.128H112.536L120.648 12.656H138.12L146.232 42.128ZM125.976 33.2H130.392L128.424 23.648H127.944L125.976 33.2ZM175.782 50.672C170.758 50.672 166.87 49.568 164.118 47.36C161.398 45.152 160.038 41.568 160.038 36.608V20.528H157.638V12.656H175.398V20.528H173.478V39.056C173.478 40.112 173.702 40.896 174.15 41.408C174.63 41.888 175.334 42.128 176.262 42.128C177.19 42.128 177.878 41.888 178.326 41.408C178.806 40.896 179.046 40.112 179.046 39.056V20.528H177.126V12.656H193.59V20.528H191.19V36.608C191.19 41.568 189.862 45.152 187.206 47.36C184.55 49.568 180.742 50.672 175.782 50.672ZM205.41 42.128H207.81V20.576H205.41V12.656H224.898C230.242 12.656 234.482 14.128 237.618 17.072C240.786 19.984 242.37 24.736 242.37 31.328C242.37 37.92 240.786 42.688 237.618 45.632C234.482 48.544 230.242 50 224.898 50H205.41V42.128ZM224.034 42.128C225.122 42.128 225.938 41.84 226.482 41.264C227.026 40.688 227.298 39.792 227.298 38.576V24.08C227.298 21.712 226.21 20.528 224.034 20.528H221.25V42.128H224.034ZM287.847 42.128H289.767V50H270.951V42.128H273.831L273.063 38.288H266.535L265.767 42.128H268.647V50H252.231V42.128H254.151L262.263 12.656H279.735L287.847 42.128ZM267.591 33.2H272.007L270.039 23.648H269.559L267.591 33.2ZM336.119 42.128H338.135V50H319.991V42.128H321.959L319.175 38.192H318.695L315.911 42.128H317.879V50H301.079V42.128H303.575L312.791 31.76L303.191 20.528H301.175V12.656H319.175V20.528H317.351L319.991 24.464H320.471L323.111 20.528H321.287V12.656H337.943V20.528H335.447L326.375 30.752L336.119 42.128Z"/>
</mask>
<path d="M146.232 42.128L141.411 43.4549L142.422 47.128H146.232V42.128ZM148.152 42.128H153.152V37.128H148.152V42.128ZM148.152 50V55H153.152V50H148.152ZM129.336 50H124.336V55H129.336V50ZM129.336 42.128V37.128H124.336V42.128H129.336ZM132.216 42.128V47.128H138.315L137.119 41.1474L132.216 42.128ZM131.448 38.288L136.351 37.3074L135.547 33.288H131.448V38.288ZM124.92 38.288V33.288H120.821L120.017 37.3074L124.92 38.288ZM124.152 42.128L119.249 41.1474L118.053 47.128H124.152V42.128ZM127.032 42.128H132.032V37.128H127.032V42.128ZM127.032 50V55H132.032V50H127.032ZM110.616 50H105.616V55H110.616V50ZM110.616 42.128V37.128H105.616V42.128H110.616ZM112.536 42.128V47.128H116.346L117.357 43.4549L112.536 42.128ZM120.648 12.656V7.656H116.838L115.827 11.3291L120.648 12.656ZM138.12 12.656L142.941 11.3291L141.93 7.656H138.12V12.656ZM125.976 33.2L121.079 32.191L119.841 38.2H125.976V33.2ZM130.392 33.2V38.2H136.527L135.289 32.191L130.392 33.2ZM128.424 23.648L133.321 22.639L132.499 18.648H128.424V23.648ZM127.944 23.648V18.648H123.869L123.047 22.639L127.944 23.648ZM146.232 42.128V47.128H148.152V42.128V37.128H146.232V42.128ZM148.152 42.128H143.152V50H148.152H153.152V42.128H148.152ZM148.152 50V45H129.336V50V55H148.152V50ZM129.336 50H134.336V42.128H129.336H124.336V50H129.336ZM129.336 42.128V47.128H132.216V42.128V37.128H129.336V42.128ZM132.216 42.128L137.119 41.1474L136.351 37.3074L131.448 38.288L126.545 39.2686L127.313 43.1086L132.216 42.128ZM131.448 38.288V33.288H124.92V38.288V43.288H131.448V38.288ZM124.92 38.288L120.017 37.3074L119.249 41.1474L124.152 42.128L129.055 43.1086L129.823 39.2686L124.92 38.288ZM124.152 42.128V47.128H127.032V42.128V37.128H124.152V42.128ZM127.032 42.128H122.032V50H127.032H132.032V42.128H127.032ZM127.032 50V45H110.616V50V55H127.032V50ZM110.616 50H115.616V42.128H110.616H105.616V50H110.616ZM110.616 42.128V47.128H112.536V42.128V37.128H110.616V42.128ZM112.536 42.128L117.357 43.4549L125.469 13.9829L120.648 12.656L115.827 11.3291L107.715 40.8011L112.536 42.128ZM120.648 12.656V17.656H138.12V12.656V7.656H120.648V12.656ZM138.12 12.656L133.299 13.9829L141.411 43.4549L146.232 42.128L151.053 40.8011L142.941 11.3291L138.12 12.656ZM125.976 33.2V38.2H130.392V33.2V28.2H125.976V33.2ZM130.392 33.2L135.289 32.191L133.321 22.639L128.424 23.648L123.527 24.657L125.495 34.209L130.392 33.2ZM128.424 23.648V18.648H127.944V23.648V28.648H128.424V23.648ZM127.944 23.648L123.047 22.639L121.079 32.191L125.976 33.2L130.873 34.209L132.841 24.657L127.944 23.648ZM164.118 47.36L160.967 51.242L160.978 51.251L160.989 51.2599L164.118 47.36ZM160.038 20.528H165.038V15.528H160.038V20.528ZM157.638 20.528H152.638V25.528H157.638V20.528ZM157.638 12.656V7.656H152.638V12.656H157.638ZM175.398 12.656H180.398V7.656H175.398V12.656ZM175.398 20.528V25.528H180.398V20.528H175.398ZM173.478 20.528V15.528H168.478V20.528H173.478ZM174.15 41.408L170.387 44.7005L170.497 44.8258L170.615 44.9435L174.15 41.408ZM178.326 41.408L174.678 37.9883L174.671 37.9964L178.326 41.408ZM179.046 20.528H184.046V15.528H179.046V20.528ZM177.126 20.528H172.126V25.528H177.126V20.528ZM177.126 12.656V7.656H172.126V12.656H177.126ZM193.59 12.656H198.59V7.656H193.59V12.656ZM193.59 20.528V25.528H198.59V20.528H193.59ZM191.19 20.528V15.528H186.19V20.528H191.19ZM187.206 47.36L184.01 43.5151L187.206 47.36ZM175.782 50.672V45.672C171.424 45.672 168.803 44.7084 167.247 43.4601L164.118 47.36L160.989 51.2599C164.937 54.4276 170.092 55.672 175.782 55.672V50.672ZM164.118 47.36L167.269 43.478C166.147 42.567 165.038 40.7166 165.038 36.608H160.038H155.038C155.038 42.4194 156.649 47.737 160.967 51.242L164.118 47.36ZM160.038 36.608H165.038V20.528H160.038H155.038V36.608H160.038ZM160.038 20.528V15.528H157.638V20.528V25.528H160.038V20.528ZM157.638 20.528H162.638V12.656H157.638H152.638V20.528H157.638ZM157.638 12.656V17.656H175.398V12.656V7.656H157.638V12.656ZM175.398 12.656H170.398V20.528H175.398H180.398V12.656H175.398ZM175.398 20.528V15.528H173.478V20.528V25.528H175.398V20.528ZM173.478 20.528H168.478V39.056H173.478H178.478V20.528H173.478ZM173.478 39.056H168.478C168.478 40.6837 168.803 42.8897 170.387 44.7005L174.15 41.408L177.913 38.1155C178.261 38.5135 178.403 38.8843 178.454 39.0624C178.5 39.2262 178.478 39.2484 178.478 39.056H173.478ZM174.15 41.408L170.615 44.9435C172.334 46.663 174.506 47.128 176.262 47.128V42.128V37.128C176.217 37.128 176.374 37.1207 176.651 37.2155C176.953 37.3182 177.335 37.5215 177.686 37.8725L174.15 41.408ZM176.262 42.128V47.128C177.99 47.128 180.251 46.6735 181.981 44.8196L178.326 41.408L174.671 37.9964C175.505 37.1025 176.39 37.128 176.262 37.128V42.128ZM178.326 41.408L181.974 44.8277C183.673 43.0153 184.046 40.7556 184.046 39.056H179.046H174.046C174.046 39.2229 174.025 39.1684 174.085 38.9724C174.151 38.7568 174.315 38.3757 174.678 37.9883L178.326 41.408ZM179.046 39.056H184.046V20.528H179.046H174.046V39.056H179.046ZM179.046 20.528V15.528H177.126V20.528V25.528H179.046V20.528ZM177.126 20.528H182.126V12.656H177.126H172.126V20.528H177.126ZM177.126 12.656V17.656H193.59V12.656V7.656H177.126V12.656ZM193.59 12.656H188.59V20.528H193.59H198.59V12.656H193.59ZM193.59 20.528V15.528H191.19V20.528V25.528H193.59V20.528ZM191.19 20.528H186.19V36.608H191.19H196.19V20.528H191.19ZM191.19 36.608H186.19C186.19 40.7532 185.092 42.6157 184.01 43.5151L187.206 47.36L190.402 51.2049C194.633 47.6883 196.19 42.3828 196.19 36.608H191.19ZM187.206 47.36L184.01 43.5151C182.572 44.7103 180.073 45.672 175.782 45.672V50.672V55.672C181.411 55.672 186.528 54.4257 190.402 51.2049L187.206 47.36ZM205.41 42.128V37.128H200.41V42.128H205.41ZM207.81 42.128V47.128H212.81V42.128H207.81ZM207.81 20.576H212.81V15.576H207.81V20.576ZM205.41 20.576H200.41V25.576H205.41V20.576ZM205.41 12.656V7.656H200.41V12.656H205.41ZM237.618 17.072L234.196 20.7174L234.215 20.7353L234.234 20.7531L237.618 17.072ZM237.618 45.632L241.02 49.296L241.022 49.2946L237.618 45.632ZM205.41 50H200.41V55H205.41V50ZM226.482 41.264L222.847 37.8309V37.8309L226.482 41.264ZM221.25 20.528V15.528H216.25V20.528H221.25ZM221.25 42.128H216.25V47.128H221.25V42.128ZM205.41 42.128V47.128H207.81V42.128V37.128H205.41V42.128ZM207.81 42.128H212.81V20.576H207.81H202.81V42.128H207.81ZM207.81 20.576V15.576H205.41V20.576V25.576H207.81V20.576ZM205.41 20.576H210.41V12.656H205.41H200.41V20.576H205.41ZM205.41 12.656V17.656H224.898V12.656V7.656H205.41V12.656ZM224.898 12.656V17.656C229.294 17.656 232.198 18.8421 234.196 20.7174L237.618 17.072L241.04 13.4266C236.766 9.41393 231.19 7.656 224.898 7.656V12.656ZM237.618 17.072L234.234 20.7531C235.931 22.3131 237.37 25.3962 237.37 31.328H242.37H247.37C247.37 24.0758 245.641 17.6549 241.002 13.3909L237.618 17.072ZM242.37 31.328H237.37C237.37 37.2539 235.934 40.3714 234.214 41.9694L237.618 45.632L241.022 49.2946C245.638 45.0046 247.37 38.5861 247.37 31.328H242.37ZM237.618 45.632L234.216 41.968C232.22 43.8215 229.308 45 224.898 45V50V55C231.176 55 236.744 53.2665 241.02 49.296L237.618 45.632ZM224.898 50V45H205.41V50V55H224.898V50ZM205.41 50H210.41V42.128H205.41H200.41V50H205.41ZM224.034 42.128V47.128C225.968 47.128 228.318 46.6022 230.117 44.6971L226.482 41.264L222.847 37.8309C223.17 37.489 223.527 37.2927 223.798 37.197C224.042 37.1109 224.151 37.128 224.034 37.128V42.128ZM226.482 41.264L230.117 44.6971C231.906 42.8029 232.298 40.4058 232.298 38.576H227.298H222.298C222.298 38.8303 222.267 38.8467 222.31 38.7076C222.358 38.5492 222.499 38.1989 222.847 37.8309L226.482 41.264ZM227.298 38.576H232.298V24.08H227.298H222.298V38.576H227.298ZM227.298 24.08H232.298C232.298 22.2252 231.881 19.9015 230.164 18.0329C228.373 16.0842 226.007 15.528 224.034 15.528V20.528V25.528C224.138 25.528 224.014 25.5436 223.757 25.4503C223.471 25.3467 223.115 25.141 222.8 24.7991C222.171 24.1145 222.298 23.5668 222.298 24.08H227.298ZM224.034 20.528V15.528H221.25V20.528V25.528H224.034V20.528ZM221.25 20.528H216.25V42.128H221.25H226.25V20.528H221.25ZM221.25 42.128V47.128H224.034V42.128V37.128H221.25V42.128ZM287.847 42.128L283.026 43.4549L284.037 47.128H287.847V42.128ZM289.767 42.128H294.767V37.128H289.767V42.128ZM289.767 50V55H294.767V50H289.767ZM270.951 50H265.951V55H270.951V50ZM270.951 42.128V37.128H265.951V42.128H270.951ZM273.831 42.128V47.128H279.93L278.734 41.1474L273.831 42.128ZM273.063 38.288L277.966 37.3074L277.162 33.288H273.063V38.288ZM266.535 38.288V33.288H262.436L261.632 37.3074L266.535 38.288ZM265.767 42.128L260.864 41.1474L259.668 47.128H265.767V42.128ZM268.647 42.128H273.647V37.128H268.647V42.128ZM268.647 50V55H273.647V50H268.647ZM252.231 50H247.231V55H252.231V50ZM252.231 42.128V37.128H247.231V42.128H252.231ZM254.151 42.128V47.128H257.961L258.972 43.4549L254.151 42.128ZM262.263 12.656V7.656H258.453L257.442 11.3291L262.263 12.656ZM279.735 12.656L284.556 11.3291L283.545 7.656H279.735V12.656ZM267.591 33.2L262.694 32.191L261.456 38.2H267.591V33.2ZM272.007 33.2V38.2H278.142L276.904 32.191L272.007 33.2ZM270.039 23.648L274.936 22.639L274.114 18.648H270.039V23.648ZM269.559 23.648V18.648H265.484L264.662 22.639L269.559 23.648ZM287.847 42.128V47.128H289.767V42.128V37.128H287.847V42.128ZM289.767 42.128H284.767V50H289.767H294.767V42.128H289.767ZM289.767 50V45H270.951V50V55H289.767V50ZM270.951 50H275.951V42.128H270.951H265.951V50H270.951ZM270.951 42.128V47.128H273.831V42.128V37.128H270.951V42.128ZM273.831 42.128L278.734 41.1474L277.966 37.3074L273.063 38.288L268.16 39.2686L268.928 43.1086L273.831 42.128ZM273.063 38.288V33.288H266.535V38.288V43.288H273.063V38.288ZM266.535 38.288L261.632 37.3074L260.864 41.1474L265.767 42.128L270.67 43.1086L271.438 39.2686L266.535 38.288ZM265.767 42.128V47.128H268.647V42.128V37.128H265.767V42.128ZM268.647 42.128H263.647V50H268.647H273.647V42.128H268.647ZM268.647 50V45H252.231V50V55H268.647V50ZM252.231 50H257.231V42.128H252.231H247.231V50H252.231ZM252.231 42.128V47.128H254.151V42.128V37.128H252.231V42.128ZM254.151 42.128L258.972 43.4549L267.084 13.9829L262.263 12.656L257.442 11.3291L249.33 40.8011L254.151 42.128ZM262.263 12.656V17.656H279.735V12.656V7.656H262.263V12.656ZM279.735 12.656L274.914 13.9829L283.026 43.4549L287.847 42.128L292.668 40.8011L284.556 11.3291L279.735 12.656ZM267.591 33.2V38.2H272.007V33.2V28.2H267.591V33.2ZM272.007 33.2L276.904 32.191L274.936 22.639L270.039 23.648L265.142 24.657L267.11 34.209L272.007 33.2ZM270.039 23.648V18.648H269.559V23.648V28.648H270.039V23.648ZM269.559 23.648L264.662 22.639L262.694 32.191L267.591 33.2L272.488 34.209L274.456 24.657L269.559 23.648ZM336.119 42.128L332.322 45.3806L333.818 47.128H336.119V42.128ZM338.135 42.128H343.135V37.128H338.135V42.128ZM338.135 50V55H343.135V50H338.135ZM319.991 50H314.991V55H319.991V50ZM319.991 42.128V37.128H314.991V42.128H319.991ZM321.959 42.128V47.128H331.62L326.041 39.2407L321.959 42.128ZM319.175 38.192L323.257 35.3047L321.763 33.192H319.175V38.192ZM318.695 38.192V33.192H316.107L314.613 35.3047L318.695 38.192ZM315.911 42.128L311.829 39.2407L306.25 47.128H315.911V42.128ZM317.879 42.128H322.879V37.128H317.879V42.128ZM317.879 50V55H322.879V50H317.879ZM301.079 50H296.079V55H301.079V50ZM301.079 42.128V37.128H296.079V42.128H301.079ZM303.575 42.128V47.128H305.82L307.312 45.4498L303.575 42.128ZM312.791 31.76L316.528 35.0818L319.423 31.8244L316.592 28.5114L312.791 31.76ZM303.191 20.528L306.992 17.2794L305.495 15.528H303.191V20.528ZM301.175 20.528H296.175V25.528H301.175V20.528ZM301.175 12.656V7.656H296.175V12.656H301.175ZM319.175 12.656H324.175V7.656H319.175V12.656ZM319.175 20.528V25.528H324.175V20.528H319.175ZM317.351 20.528V15.528H307.977L313.198 23.3132L317.351 20.528ZM319.991 24.464L315.838 27.2492L317.324 29.464H319.991V24.464ZM320.471 24.464V29.464H323.138L324.623 27.2492L320.471 24.464ZM323.111 20.528L327.263 23.3132L332.485 15.528H323.111V20.528ZM321.287 20.528H316.287V25.528H321.287V20.528ZM321.287 12.656V7.656H316.287V12.656H321.287ZM337.943 12.656H342.943V7.656H337.943V12.656ZM337.943 20.528V25.528H342.943V20.528H337.943ZM335.447 20.528V15.528H333.199L331.707 17.2094L335.447 20.528ZM326.375 30.752L322.635 27.4335L319.742 30.694L322.578 34.0046L326.375 30.752ZM336.119 42.128V47.128H338.135V42.128V37.128H336.119V42.128ZM338.135 42.128H333.135V50H338.135H343.135V42.128H338.135ZM338.135 50V45H319.991V50V55H338.135V50ZM319.991 50H324.991V42.128H319.991H314.991V50H319.991ZM319.991 42.128V47.128H321.959V42.128V37.128H319.991V42.128ZM321.959 42.128L326.041 39.2407L323.257 35.3047L319.175 38.192L315.093 41.0793L317.877 45.0153L321.959 42.128ZM319.175 38.192V33.192H318.695V38.192V43.192H319.175V38.192ZM318.695 38.192L314.613 35.3047L311.829 39.2407L315.911 42.128L319.993 45.0153L322.777 41.0793L318.695 38.192ZM315.911 42.128V47.128H317.879V42.128V37.128H315.911V42.128ZM317.879 42.128H312.879V50H317.879H322.879V42.128H317.879ZM317.879 50V45H301.079V50V55H317.879V50ZM301.079 50H306.079V42.128H301.079H296.079V50H301.079ZM301.079 42.128V47.128H303.575V42.128V37.128H301.079V42.128ZM303.575 42.128L307.312 45.4498L316.528 35.0818L312.791 31.76L309.054 28.4382L299.838 38.8062L303.575 42.128ZM312.791 31.76L316.592 28.5114L306.992 17.2794L303.191 20.528L299.39 23.7766L308.99 35.0086L312.791 31.76ZM303.191 20.528V15.528H301.175V20.528V25.528H303.191V20.528ZM301.175 20.528H306.175V12.656H301.175H296.175V20.528H301.175ZM301.175 12.656V17.656H319.175V12.656V7.656H301.175V12.656ZM319.175 12.656H314.175V20.528H319.175H324.175V12.656H319.175ZM319.175 20.528V15.528H317.351V20.528V25.528H319.175V20.528ZM317.351 20.528L313.198 23.3132L315.838 27.2492L319.991 24.464L324.143 21.6788L321.503 17.7428L317.351 20.528ZM319.991 24.464V29.464H320.471V24.464V19.464H319.991V24.464ZM320.471 24.464L324.623 27.2492L327.263 23.3132L323.111 20.528L318.958 17.7428L316.318 21.6788L320.471 24.464ZM323.111 20.528V15.528H321.287V20.528V25.528H323.111V20.528ZM321.287 20.528H326.287V12.656H321.287H316.287V20.528H321.287ZM321.287 12.656V17.656H337.943V12.656V7.656H321.287V12.656ZM337.943 12.656H332.943V20.528H337.943H342.943V12.656H337.943ZM337.943 20.528V15.528H335.447V20.528V25.528H337.943V20.528ZM335.447 20.528L331.707 17.2094L322.635 27.4335L326.375 30.752L330.115 34.0705L339.187 23.8465L335.447 20.528ZM326.375 30.752L322.578 34.0046L332.322 45.3806L336.119 42.128L339.916 38.8754L330.172 27.4994L326.375 30.752Z" fill="#FFCC00" mask="url(#path-1-outside-1_1003_57)"/>
</g>
<g filter="url(#filter1_i_1003_57)">
<mask id="path-3-outside-2_1003_57" maskUnits="userSpaceOnUse" x="-0.959961" y="67" width="444" height="50" fill="black">
<rect fill="white" x="-0.959961" y="67" width="444" height="50"/>
<path d="M5.00004 111V103.128H7.40004V81.528H5.00004V73.656H25.256V81.528H20.84V103.128H25.16V98.712H34.712V111H5.00004ZM46.4394 111V103.128H48.8394V81.528H46.4394V73.656H78.8394V88.152H68.0874V81.528H62.2794V89.112H66.5034V94.584H62.2794V103.128H68.0874V95.544H78.8394V111H46.4394ZM125.97 103.128H127.89V111H109.074V103.128H111.954L111.186 99.288H104.658L103.89 103.128H106.77V111H90.3542V103.128H92.2742L100.386 73.656H117.858L125.97 103.128ZM105.714 94.2H110.13L108.162 84.648H107.682L105.714 94.2ZM139.49 103.128H141.89V81.576H139.49V73.656H158.978C164.322 73.656 168.562 75.128 171.698 78.072C174.866 80.984 176.45 85.736 176.45 92.328C176.45 98.92 174.866 103.688 171.698 106.632C168.562 109.544 164.322 111 158.978 111H139.49V103.128ZM158.114 103.128C159.202 103.128 160.018 102.84 160.562 102.264C161.106 101.688 161.378 100.792 161.378 99.576V85.08C161.378 82.712 160.29 81.528 158.114 81.528H155.33V103.128H158.114ZM188.148 111V103.128H190.548V81.528H188.148V73.656H220.548V88.152H209.796V81.528H203.988V89.112H208.212V94.584H203.988V103.128H209.796V95.544H220.548V111H188.148ZM232.447 103.128H234.847V81.528H232.447V73.656H254.479C258.607 73.656 261.759 74.504 263.935 76.2C266.111 77.896 267.199 80.648 267.199 84.456C267.199 86.6 266.767 88.456 265.903 90.024C265.039 91.592 263.807 92.68 262.207 93.288L262.255 93.768C265.327 94.248 266.863 96.136 266.863 99.432V103.128H269.119V111H253.903V99.72C253.903 98.472 253.711 97.528 253.327 96.888C252.975 96.248 252.399 95.816 251.599 95.592C250.831 95.368 249.727 95.256 248.287 95.256V103.128H251.455V111H232.447V103.128ZM250.879 89.4C251.807 89.4 252.495 89.16 252.943 88.68C253.423 88.168 253.663 87.384 253.663 86.328V84.6C253.663 83.544 253.423 82.776 252.943 82.296C252.495 81.784 251.807 81.528 250.879 81.528H248.287V89.4H250.879ZM295.798 111.672C292.726 111.672 289.814 111.416 287.062 110.904C284.342 110.36 282.246 109.752 280.774 109.08V99.576H291.334C291.334 100.568 291.558 101.288 292.006 101.736C292.454 102.184 293.27 102.408 294.454 102.408C295.446 102.408 296.15 102.264 296.566 101.976C297.014 101.656 297.238 101.192 297.238 100.584C297.238 100.072 297.03 99.64 296.614 99.288C296.198 98.904 295.478 98.52 294.454 98.136L290.326 96.696C286.774 95.352 284.214 93.768 282.646 91.944C281.11 90.12 280.342 87.656 280.342 84.552C280.342 80.776 281.574 77.912 284.038 75.96C286.534 73.976 290.678 72.984 296.47 72.984C299.254 72.984 301.862 73.272 304.294 73.848C306.758 74.392 308.742 75.128 310.246 76.056V84.648H300.646C300.646 83.048 299.654 82.248 297.67 82.248C296.71 82.248 296.022 82.376 295.606 82.632C295.222 82.856 295.03 83.272 295.03 83.88C295.03 84.424 295.254 84.856 295.702 85.176C296.182 85.496 296.95 85.832 298.006 86.184L302.182 87.624C305.574 88.776 308.038 90.28 309.574 92.136C311.142 93.96 311.926 96.36 311.926 99.336C311.926 103.4 310.55 106.472 307.798 108.552C305.078 110.632 301.078 111.672 295.798 111.672ZM361.741 81.528H359.341V103.128H361.741V111H343.597V103.128H345.901V95.208H339.181V103.128H341.485V111H323.341V103.128H325.741V81.528H323.341V73.656H341.485V81.528H339.181V88.824H345.901V81.528H343.597V73.656H361.741V81.528ZM373.734 111V103.128H376.134V81.528H373.734V73.656H391.974V81.528H389.574V103.128H391.974V111H373.734ZM403.97 103.128H406.37V81.528H403.97V73.656H425.042C429.17 73.656 432.322 74.552 434.498 76.344C436.674 78.104 437.762 80.968 437.762 84.936C437.762 88.904 436.674 91.784 434.498 93.576C432.322 95.336 429.17 96.216 425.042 96.216H419.81V103.128H424.418V111H403.97V103.128ZM421.442 89.4C423.298 89.4 424.226 88.376 424.226 86.328V84.6C424.226 83.544 423.986 82.776 423.506 82.296C423.058 81.784 422.37 81.528 421.442 81.528H419.81V89.4H421.442Z"/>
</mask>
<path d="M5.00004 111H3.91006e-05V116H5.00004V111ZM5.00004 103.128V98.128H3.91006e-05V103.128H5.00004ZM7.40004 103.128V108.128H12.4V103.128H7.40004ZM7.40004 81.528H12.4V76.528H7.40004V81.528ZM5.00004 81.528H3.91006e-05V86.528H5.00004V81.528ZM5.00004 73.656V68.656H3.91006e-05V73.656H5.00004ZM25.256 73.656H30.256V68.656H25.256V73.656ZM25.256 81.528V86.528H30.256V81.528H25.256ZM20.84 81.528V76.528H15.84V81.528H20.84ZM20.84 103.128H15.84V108.128H20.84V103.128ZM25.16 103.128V108.128H30.16V103.128H25.16ZM25.16 98.712V93.712H20.16V98.712H25.16ZM34.712 98.712H39.712V93.712H34.712V98.712ZM34.712 111V116H39.712V111H34.712ZM5.00004 111H10V103.128H5.00004H3.91006e-05V111H5.00004ZM5.00004 103.128V108.128H7.40004V103.128V98.128H5.00004V103.128ZM7.40004 103.128H12.4V81.528H7.40004H2.40004V103.128H7.40004ZM7.40004 81.528V76.528H5.00004V81.528V86.528H7.40004V81.528ZM5.00004 81.528H10V73.656H5.00004H3.91006e-05V81.528H5.00004ZM5.00004 73.656V78.656H25.256V73.656V68.656H5.00004V73.656ZM25.256 73.656H20.256V81.528H25.256H30.256V73.656H25.256ZM25.256 81.528V76.528H20.84V81.528V86.528H25.256V81.528ZM20.84 81.528H15.84V103.128H20.84H25.84V81.528H20.84ZM20.84 103.128V108.128H25.16V103.128V98.128H20.84V103.128ZM25.16 103.128H30.16V98.712H25.16H20.16V103.128H25.16ZM25.16 98.712V103.712H34.712V98.712V93.712H25.16V98.712ZM34.712 98.712H29.712V111H34.712H39.712V98.712H34.712ZM34.712 111V106H5.00004V111V116H34.712V111ZM46.4394 111H41.4394V116H46.4394V111ZM46.4394 103.128V98.128H41.4394V103.128H46.4394ZM48.8394 103.128V108.128H53.8394V103.128H48.8394ZM48.8394 81.528H53.8394V76.528H48.8394V81.528ZM46.4394 81.528H41.4394V86.528H46.4394V81.528ZM46.4394 73.656V68.656H41.4394V73.656H46.4394ZM78.8394 73.656H83.8394V68.656H78.8394V73.656ZM78.8394 88.152V93.152H83.8394V88.152H78.8394ZM68.0874 88.152H63.0874V93.152H68.0874V88.152ZM68.0874 81.528H73.0874V76.528H68.0874V81.528ZM62.2794 81.528V76.528H57.2794V81.528H62.2794ZM62.2794 89.112H57.2794V94.112H62.2794V89.112ZM66.5034 89.112H71.5034V84.112H66.5034V89.112ZM66.5034 94.584V99.584H71.5034V94.584H66.5034ZM62.2794 94.584V89.584H57.2794V94.584H62.2794ZM62.2794 103.128H57.2794V108.128H62.2794V103.128ZM68.0874 103.128V108.128H73.0874V103.128H68.0874ZM68.0874 95.544V90.544H63.0874V95.544H68.0874ZM78.8394 95.544H83.8394V90.544H78.8394V95.544ZM78.8394 111V116H83.8394V111H78.8394ZM46.4394 111H51.4394V103.128H46.4394H41.4394V111H46.4394ZM46.4394 103.128V108.128H48.8394V103.128V98.128H46.4394V103.128ZM48.8394 103.128H53.8394V81.528H48.8394H43.8394V103.128H48.8394ZM48.8394 81.528V76.528H46.4394V81.528V86.528H48.8394V81.528ZM46.4394 81.528H51.4394V73.656H46.4394H41.4394V81.528H46.4394ZM46.4394 73.656V78.656H78.8394V73.656V68.656H46.4394V73.656ZM78.8394 73.656H73.8394V88.152H78.8394H83.8394V73.656H78.8394ZM78.8394 88.152V83.152H68.0874V88.152V93.152H78.8394V88.152ZM68.0874 88.152H73.0874V81.528H68.0874H63.0874V88.152H68.0874ZM68.0874 81.528V76.528H62.2794V81.528V86.528H68.0874V81.528ZM62.2794 81.528H57.2794V89.112H62.2794H67.2794V81.528H62.2794ZM62.2794 89.112V94.112H66.5034V89.112V84.112H62.2794V89.112ZM66.5034 89.112H61.5034V94.584H66.5034H71.5034V89.112H66.5034ZM66.5034 94.584V89.584H62.2794V94.584V99.584H66.5034V94.584ZM62.2794 94.584H57.2794V103.128H62.2794H67.2794V94.584H62.2794ZM62.2794 103.128V108.128H68.0874V103.128V98.128H62.2794V103.128ZM68.0874 103.128H73.0874V95.544H68.0874H63.0874V103.128H68.0874ZM68.0874 95.544V100.544H78.8394V95.544V90.544H68.0874V95.544ZM78.8394 95.544H73.8394V111H78.8394H83.8394V95.544H78.8394ZM78.8394 111V106H46.4394V111V116H78.8394V111ZM125.97 103.128L121.149 104.455L122.16 108.128H125.97V103.128ZM127.89 103.128H132.89V98.128H127.89V103.128ZM127.89 111V116H132.89V111H127.89ZM109.074 111H104.074V116H109.074V111ZM109.074 103.128V98.128H104.074V103.128H109.074ZM111.954 103.128V108.128H118.053L116.857 102.147L111.954 103.128ZM111.186 99.288L116.089 98.3074L115.285 94.288H111.186V99.288ZM104.658 99.288V94.288H100.559L99.7553 98.3074L104.658 99.288ZM103.89 103.128L98.9873 102.147L97.7911 108.128H103.89V103.128ZM106.77 103.128H111.77V98.128H106.77V103.128ZM106.77 111V116H111.77V111H106.77ZM90.3542 111H85.3542V116H90.3542V111ZM90.3542 103.128V98.128H85.3542V103.128H90.3542ZM92.2742 103.128V108.128H96.0839L97.0949 104.455L92.2742 103.128ZM100.386 73.656V68.656H96.5764L95.5654 72.3291L100.386 73.656ZM117.858 73.656L122.679 72.3291L121.668 68.656H117.858V73.656ZM105.714 94.2L100.817 93.191L99.579 99.2H105.714V94.2ZM110.13 94.2V99.2H116.265L115.027 93.191L110.13 94.2ZM108.162 84.648L113.059 83.639L112.237 79.648H108.162V84.648ZM107.682 84.648V79.648H103.607L102.785 83.639L107.682 84.648ZM125.97 103.128V108.128H127.89V103.128V98.128H125.97V103.128ZM127.89 103.128H122.89V111H127.89H132.89V103.128H127.89ZM127.89 111V106H109.074V111V116H127.89V111ZM109.074 111H114.074V103.128H109.074H104.074V111H109.074ZM109.074 103.128V108.128H111.954V103.128V98.128H109.074V103.128ZM111.954 103.128L116.857 102.147L116.089 98.3074L111.186 99.288L106.283 100.269L107.051 104.109L111.954 103.128ZM111.186 99.288V94.288H104.658V99.288V104.288H111.186V99.288ZM104.658 99.288L99.7553 98.3074L98.9873 102.147L103.89 103.128L108.793 104.109L109.561 100.269L104.658 99.288ZM103.89 103.128V108.128H106.77V103.128V98.128H103.89V103.128ZM106.77 103.128H101.77V111H106.77H111.77V103.128H106.77ZM106.77 111V106H90.3542V111V116H106.77V111ZM90.3542 111H95.3542V103.128H90.3542H85.3542V111H90.3542ZM90.3542 103.128V108.128H92.2742V103.128V98.128H90.3542V103.128ZM92.2742 103.128L97.0949 104.455L105.207 74.9829L100.386 73.656L95.5654 72.3291L87.4534 101.801L92.2742 103.128ZM100.386 73.656V78.656H117.858V73.656V68.656H100.386V73.656ZM117.858 73.656L113.037 74.9829L121.149 104.455L125.97 103.128L130.791 101.801L122.679 72.3291L117.858 73.656ZM105.714 94.2V99.2H110.13V94.2V89.2H105.714V94.2ZM110.13 94.2L115.027 93.191L113.059 83.639L108.162 84.648L103.265 85.657L105.233 95.209L110.13 94.2ZM108.162 84.648V79.648H107.682V84.648V89.648H108.162V84.648ZM107.682 84.648L102.785 83.639L100.817 93.191L105.714 94.2L110.611 95.209L112.579 85.657L107.682 84.648ZM139.49 103.128V98.128H134.49V103.128H139.49ZM141.89 103.128V108.128H146.89V103.128H141.89ZM141.89 81.576H146.89V76.576H141.89V81.576ZM139.49 81.576H134.49V86.576H139.49V81.576ZM139.49 73.656V68.656H134.49V73.656H139.49ZM171.698 78.072L168.276 81.7174L168.295 81.7353L168.314 81.7531L171.698 78.072ZM171.698 106.632L175.1 110.296L175.102 110.295L171.698 106.632ZM139.49 111H134.49V116H139.49V111ZM160.562 102.264L156.927 98.8309V98.8309L160.562 102.264ZM155.33 81.528V76.528H150.33V81.528H155.33ZM155.33 103.128H150.33V108.128H155.33V103.128ZM139.49 103.128V108.128H141.89V103.128V98.128H139.49V103.128ZM141.89 103.128H146.89V81.576H141.89H136.89V103.128H141.89ZM141.89 81.576V76.576H139.49V81.576V86.576H141.89V81.576ZM139.49 81.576H144.49V73.656H139.49H134.49V81.576H139.49ZM139.49 73.656V78.656H158.978V73.656V68.656H139.49V73.656ZM158.978 73.656V78.656C163.374 78.656 166.278 79.8421 168.276 81.7174L171.698 78.072L175.12 74.4266C170.846 70.4139 165.27 68.656 158.978 68.656V73.656ZM171.698 78.072L168.314 81.7531C170.011 83.3131 171.45 86.3962 171.45 92.328H176.45H181.45C181.45 85.0758 179.721 78.6549 175.082 74.3909L171.698 78.072ZM176.45 92.328H171.45C171.45 98.2539 170.014 101.371 168.294 102.969L171.698 106.632L175.102 110.295C179.718 106.005 181.45 99.5861 181.45 92.328H176.45ZM171.698 106.632L168.296 102.968C166.3 104.821 163.388 106 158.978 106V111V116C165.256 116 170.824 114.267 175.1 110.296L171.698 106.632ZM158.978 111V106H139.49V111V116H158.978V111ZM139.49 111H144.49V103.128H139.49H134.49V111H139.49ZM158.114 103.128V108.128C160.048 108.128 162.398 107.602 164.197 105.697L160.562 102.264L156.927 98.8309C157.25 98.489 157.607 98.2927 157.878 98.197C158.122 98.1109 158.231 98.128 158.114 98.128V103.128ZM160.562 102.264L164.197 105.697C165.986 103.803 166.378 101.406 166.378 99.576H161.378H156.378C156.378 99.8303 156.347 99.8467 156.39 99.7076C156.438 99.5492 156.579 99.1989 156.927 98.8309L160.562 102.264ZM161.378 99.576H166.378V85.08H161.378H156.378V99.576H161.378ZM161.378 85.08H166.378C166.378 83.2252 165.961 80.9015 164.244 79.0329C162.453 77.0842 160.087 76.528 158.114 76.528V81.528V86.528C158.218 86.528 158.094 86.5436 157.837 86.4503C157.551 86.3467 157.195 86.141 156.88 85.7991C156.251 85.1145 156.378 84.5668 156.378 85.08H161.378ZM158.114 81.528V76.528H155.33V81.528V86.528H158.114V81.528ZM155.33 81.528H150.33V103.128H155.33H160.33V81.528H155.33ZM155.33 103.128V108.128H158.114V103.128V98.128H155.33V103.128ZM188.148 111H183.148V116H188.148V111ZM188.148 103.128V98.128H183.148V103.128H188.148ZM190.548 103.128V108.128H195.548V103.128H190.548ZM190.548 81.528H195.548V76.528H190.548V81.528ZM188.148 81.528H183.148V86.528H188.148V81.528ZM188.148 73.656V68.656H183.148V73.656H188.148ZM220.548 73.656H225.548V68.656H220.548V73.656ZM220.548 88.152V93.152H225.548V88.152H220.548ZM209.796 88.152H204.796V93.152H209.796V88.152ZM209.796 81.528H214.796V76.528H209.796V81.528ZM203.988 81.528V76.528H198.988V81.528H203.988ZM203.988 89.112H198.988V94.112H203.988V89.112ZM208.212 89.112H213.212V84.112H208.212V89.112ZM208.212 94.584V99.584H213.212V94.584H208.212ZM203.988 94.584V89.584H198.988V94.584H203.988ZM203.988 103.128H198.988V108.128H203.988V103.128ZM209.796 103.128V108.128H214.796V103.128H209.796ZM209.796 95.544V90.544H204.796V95.544H209.796ZM220.548 95.544H225.548V90.544H220.548V95.544ZM220.548 111V116H225.548V111H220.548ZM188.148 111H193.148V103.128H188.148H183.148V111H188.148ZM188.148 103.128V108.128H190.548V103.128V98.128H188.148V103.128ZM190.548 103.128H195.548V81.528H190.548H185.548V103.128H190.548ZM190.548 81.528V76.528H188.148V81.528V86.528H190.548V81.528ZM188.148 81.528H193.148V73.656H188.148H183.148V81.528H188.148ZM188.148 73.656V78.656H220.548V73.656V68.656H188.148V73.656ZM220.548 73.656H215.548V88.152H220.548H225.548V73.656H220.548ZM220.548 88.152V83.152H209.796V88.152V93.152H220.548V88.152ZM209.796 88.152H214.796V81.528H209.796H204.796V88.152H209.796ZM209.796 81.528V76.528H203.988V81.528V86.528H209.796V81.528ZM203.988 81.528H198.988V89.112H203.988H208.988V81.528H203.988ZM203.988 89.112V94.112H208.212V89.112V84.112H203.988V89.112ZM208.212 89.112H203.212V94.584H208.212H213.212V89.112H208.212ZM208.212 94.584V89.584H203.988V94.584V99.584H208.212V94.584ZM203.988 94.584H198.988V103.128H203.988H208.988V94.584H203.988ZM203.988 103.128V108.128H209.796V103.128V98.128H203.988V103.128ZM209.796 103.128H214.796V95.544H209.796H204.796V103.128H209.796ZM209.796 95.544V100.544H220.548V95.544V90.544H209.796V95.544ZM220.548 95.544H215.548V111H220.548H225.548V95.544H220.548ZM220.548 111V106H188.148V111V116H220.548V111ZM232.447 103.128V98.128H227.447V103.128H232.447ZM234.847 103.128V108.128H239.847V103.128H234.847ZM234.847 81.528H239.847V76.528H234.847V81.528ZM232.447 81.528H227.447V86.528H232.447V81.528ZM232.447 73.656V68.656H227.447V73.656H232.447ZM263.935 76.2L260.861 80.1436V80.1436L263.935 76.2ZM265.903 90.024L261.524 87.611V87.611L265.903 90.024ZM262.207 93.288L260.431 88.6141L256.851 89.9746L257.232 93.7855L262.207 93.288ZM262.255 93.768L257.28 94.2655L257.664 98.1114L261.483 98.7081L262.255 93.768ZM266.863 103.128H261.863V108.128H266.863V103.128ZM269.119 103.128H274.119V98.128H269.119V103.128ZM269.119 111V116H274.119V111H269.119ZM253.903 111H248.903V116H253.903V111ZM253.327 96.888L248.946 99.2976L248.991 99.3799L249.039 99.4605L253.327 96.888ZM251.599 95.592L250.199 100.392L250.225 100.4L250.251 100.407L251.599 95.592ZM248.287 95.256V90.256H243.287V95.256H248.287ZM248.287 103.128H243.287V108.128H248.287V103.128ZM251.455 103.128H256.455V98.128H251.455V103.128ZM251.455 111V116H256.455V111H251.455ZM232.447 111H227.447V116H232.447V111ZM252.943 88.68L249.295 85.2603L249.288 85.2684L252.943 88.68ZM252.943 82.296L249.18 85.5885L249.29 85.7138L249.407 85.8315L252.943 82.296ZM248.287 81.528V76.528H243.287V81.528H248.287ZM248.287 89.4H243.287V94.4H248.287V89.4ZM232.447 103.128V108.128H234.847V103.128V98.128H232.447V103.128ZM234.847 103.128H239.847V81.528H234.847H229.847V103.128H234.847ZM234.847 81.528V76.528H232.447V81.528V86.528H234.847V81.528ZM232.447 81.528H237.447V73.656H232.447H227.447V81.528H232.447ZM232.447 73.656V78.656H254.479V73.656V68.656H232.447V73.656ZM254.479 73.656V78.656C258.022 78.656 259.905 79.3983 260.861 80.1436L263.935 76.2L267.009 72.2564C263.613 69.6097 259.192 68.656 254.479 68.656V73.656ZM263.935 76.2L260.861 80.1436C261.403 80.5657 262.199 81.5659 262.199 84.456H267.199H272.199C272.199 79.7301 270.819 75.2263 267.009 72.2564L263.935 76.2ZM267.199 84.456H262.199C262.199 85.9225 261.907 86.9152 261.524 87.611L265.903 90.024L270.282 92.437C271.627 89.9968 272.199 87.2775 272.199 84.456H267.199ZM265.903 90.024L261.524 87.611C261.203 88.1924 260.868 88.4478 260.431 88.6141L262.207 93.288L263.983 97.9619C266.745 96.9122 268.875 94.9916 270.282 92.437L265.903 90.024ZM262.207 93.288L257.232 93.7855L257.28 94.2655L262.255 93.768L267.23 93.2705L267.182 92.7905L262.207 93.288ZM262.255 93.768L261.483 98.7081C261.826 98.7616 261.969 98.8305 261.986 98.8392C261.987 98.8399 261.912 98.7974 261.832 98.6994C261.654 98.4808 261.863 98.5273 261.863 99.432H266.863H271.863C271.863 97.0407 271.303 94.4952 269.589 92.3886C267.844 90.2434 265.434 89.204 263.027 88.8279L262.255 93.768ZM266.863 99.432H261.863V103.128H266.863H271.863V99.432H266.863ZM266.863 103.128V108.128H269.119V103.128V98.128H266.863V103.128ZM269.119 103.128H264.119V111H269.119H274.119V103.128H269.119ZM269.119 111V106H253.903V111V116H269.119V111ZM253.903 111H258.903V99.72H253.903H248.903V111H253.903ZM253.903 99.72H258.903C258.903 98.107 258.681 96.0931 257.614 94.3155L253.327 96.888L249.039 99.4605C248.952 99.3139 248.903 99.1983 248.88 99.1337C248.857 99.0695 248.854 99.045 248.859 99.0725C248.865 99.0997 248.876 99.1656 248.886 99.2773C248.896 99.3885 248.903 99.5347 248.903 99.72H253.903ZM253.327 96.888L257.708 94.4784C256.618 92.4966 254.846 91.3089 252.947 90.7772L251.599 95.592L250.251 100.407C250.145 100.377 249.908 100.292 249.631 100.084C249.342 99.8676 249.107 99.5905 248.946 99.2976L253.327 96.888ZM251.599 95.592L252.999 90.792C251.55 90.3694 249.887 90.256 248.287 90.256V95.256V100.256C248.885 100.256 249.347 100.28 249.69 100.314C249.86 100.332 249.987 100.35 250.077 100.366C250.168 100.383 250.205 100.394 250.199 100.392L251.599 95.592ZM248.287 95.256H243.287V103.128H248.287H253.287V95.256H248.287ZM248.287 103.128V108.128H251.455V103.128V98.128H248.287V103.128ZM251.455 103.128H246.455V111H251.455H256.455V103.128H251.455ZM251.455 111V106H232.447V111V116H251.455V111ZM232.447 111H237.447V103.128H232.447H227.447V111H232.447ZM250.879 89.4V94.4C252.607 94.4 254.868 93.9455 256.598 92.0916L252.943 88.68L249.288 85.2684C250.122 84.3745 251.007 84.4 250.879 84.4V89.4ZM252.943 88.68L256.591 92.0997C258.29 90.2873 258.663 88.0276 258.663 86.328H253.663H248.663C248.663 86.4949 248.642 86.4404 248.702 86.2444C248.768 86.0288 248.932 85.6477 249.295 85.2603L252.943 88.68ZM253.663 86.328H258.663V84.6H253.663H248.663V86.328H253.663ZM253.663 84.6H258.663C258.663 82.9354 258.304 80.5862 256.478 78.7605L252.943 82.296L249.407 85.8315C248.979 85.4031 248.787 84.9682 248.711 84.7234C248.641 84.5009 248.663 84.4294 248.663 84.6H253.663ZM252.943 82.296L256.706 79.0035C254.998 77.0519 252.699 76.528 250.879 76.528V81.528V86.528C250.898 86.528 250.687 86.5324 250.347 86.4061C249.976 86.268 249.546 86.0064 249.18 85.5885L252.943 82.296ZM250.879 81.528V76.528H248.287V81.528V86.528H250.879V81.528ZM248.287 81.528H243.287V89.4H248.287H253.287V81.528H248.287ZM248.287 89.4V94.4H250.879V89.4V84.4H248.287V89.4ZM287.062 110.904L286.081 115.807L286.114 115.813L286.147 115.82L287.062 110.904ZM280.774 109.08H275.774V112.294L278.697 113.628L280.774 109.08ZM280.774 99.576V94.576H275.774V99.576H280.774ZM291.334 99.576H296.334V94.576H291.334V99.576ZM292.006 101.736L288.47 105.272L288.47 105.272L292.006 101.736ZM296.566 101.976L299.412 106.087L299.442 106.066L299.472 106.045L296.566 101.976ZM296.614 99.288L293.222 102.962L293.301 103.035L293.384 103.105L296.614 99.288ZM294.454 98.136L296.209 93.4544L296.155 93.434L296.1 93.415L294.454 98.136ZM290.326 96.696L288.556 101.372L288.617 101.396L288.679 101.417L290.326 96.696ZM282.646 91.944L278.821 95.1647L278.837 95.1841L278.854 95.2034L282.646 91.944ZM284.038 75.96L287.142 79.8792L287.149 79.8741L284.038 75.96ZM304.294 73.848L303.141 78.7134L303.178 78.7222L303.216 78.7304L304.294 73.848ZM310.246 76.056H315.246V73.2659L312.871 71.8008L310.246 76.056ZM310.246 84.648V89.648H315.246V84.648H310.246ZM300.646 84.648H295.646V89.648H300.646V84.648ZM295.606 82.632L298.125 86.9509L298.176 86.9212L298.226 86.8903L295.606 82.632ZM295.702 85.176L292.795 89.2447L292.861 89.2915L292.928 89.3362L295.702 85.176ZM298.006 86.184L299.635 81.4571L299.611 81.4487L299.587 81.4406L298.006 86.184ZM302.182 87.624L300.552 92.3509L300.563 92.3547L300.574 92.3584L302.182 87.624ZM309.574 92.136L305.722 95.3238L305.751 95.3599L305.782 95.3954L309.574 92.136ZM307.798 108.552L304.783 104.563L304.771 104.572L304.76 104.58L307.798 108.552ZM295.798 111.672V106.672C293.003 106.672 290.399 106.439 287.976 105.988L287.062 110.904L286.147 115.82C289.228 116.393 292.448 116.672 295.798 116.672V111.672ZM287.062 110.904L288.042 106.001C285.473 105.487 283.81 104.97 282.85 104.532L280.774 109.08L278.697 113.628C280.681 114.534 283.21 115.233 286.081 115.807L287.062 110.904ZM280.774 109.08H285.774V99.576H280.774H275.774V109.08H280.774ZM280.774 99.576V104.576H291.334V99.576V94.576H280.774V99.576ZM291.334 99.576H286.334C286.334 101.166 286.671 103.473 288.47 105.272L292.006 101.736L295.541 98.2005C295.99 98.6489 296.193 99.1075 296.276 99.3747C296.352 99.6198 296.334 99.7175 296.334 99.576H291.334ZM292.006 101.736L288.47 105.272C290.395 107.197 292.977 107.408 294.454 107.408V102.408V97.408C294.145 97.408 294.121 97.3754 294.277 97.4184C294.435 97.4616 294.98 97.6392 295.541 98.2005L292.006 101.736ZM294.454 102.408V107.408C295.644 107.408 297.674 107.29 299.412 106.087L296.566 101.976L293.72 97.865C293.995 97.6744 294.237 97.563 294.4 97.5C294.564 97.4369 294.679 97.4105 294.724 97.4014C294.799 97.386 294.73 97.408 294.454 97.408V102.408ZM296.566 101.976L299.472 106.045C301.385 104.678 302.238 102.611 302.238 100.584H297.238H292.238C292.238 100.27 292.298 99.7717 292.567 99.2143C292.844 98.639 293.249 98.2006 293.659 97.9073L296.566 101.976ZM297.238 100.584H302.238C302.238 98.4967 301.3 96.7034 299.843 95.4711L296.614 99.288L293.384 103.105C293.129 102.889 292.816 102.543 292.577 102.045C292.333 101.539 292.238 101.027 292.238 100.584H297.238ZM296.614 99.288L300.005 95.614C298.853 94.5508 297.381 93.8937 296.209 93.4544L294.454 98.136L292.698 102.818C293.069 102.957 293.294 103.063 293.409 103.124C293.463 103.153 293.471 103.16 293.444 103.142C293.42 103.126 293.337 103.068 293.222 102.962L296.614 99.288ZM294.454 98.136L296.1 93.415L291.972 91.975L290.326 96.696L288.679 101.417L292.807 102.857L294.454 98.136ZM290.326 96.696L292.095 92.0196C288.916 90.8168 287.233 89.6101 286.437 88.6846L282.646 91.944L278.854 95.2034C281.194 97.9259 284.631 99.8872 288.556 101.372L290.326 96.696ZM282.646 91.944L286.47 88.7233C285.897 88.0432 285.342 86.8388 285.342 84.552H280.342H275.342C275.342 88.4732 276.322 92.1968 278.821 95.1647L282.646 91.944ZM280.342 84.552H285.342C285.342 81.9613 286.12 80.689 287.142 79.8792L284.038 75.96L280.933 72.0408C277.027 75.135 275.342 79.5907 275.342 84.552H280.342ZM284.038 75.96L287.149 79.8741C288.284 78.9716 290.994 77.984 296.47 77.984V72.984V67.984C290.361 67.984 284.783 68.9804 280.926 72.0459L284.038 75.96ZM296.47 72.984V77.984C298.909 77.984 301.127 78.2363 303.141 78.7134L304.294 73.848L305.446 68.9826C302.596 68.3077 299.598 67.984 296.47 67.984V72.984ZM304.294 73.848L303.216 78.7304C305.347 79.2009 306.75 79.7741 307.62 80.3112L310.246 76.056L312.871 71.8008C310.733 70.4819 308.169 69.5831 305.371 68.9656L304.294 73.848ZM310.246 76.056H305.246V84.648H310.246H315.246V76.056H310.246ZM310.246 84.648V79.648H300.646V84.648V89.648H310.246V84.648ZM300.646 84.648H305.646C305.646 82.7583 305.007 80.5419 303.04 78.9559C301.279 77.5358 299.203 77.248 297.67 77.248V82.248V87.248C298.12 87.248 297.532 87.3602 296.763 86.7401C296.346 86.4037 296.029 85.9671 295.839 85.5079C295.662 85.0793 295.646 84.7557 295.646 84.648H300.646ZM297.67 82.248V77.248C296.523 77.248 294.643 77.3537 292.985 78.3737L295.606 82.632L298.226 86.8903C297.969 87.0487 297.75 87.138 297.611 87.1865C297.471 87.2353 297.377 87.2543 297.348 87.2596C297.303 87.2681 297.392 87.248 297.67 87.248V82.248ZM295.606 82.632L293.086 78.3131C290.622 79.7506 290.03 82.2296 290.03 83.88H295.03H300.03C300.03 84.0741 300.003 84.5806 299.713 85.2073C299.394 85.8997 298.847 86.5297 298.125 86.9509L295.606 82.632ZM295.03 83.88H290.03C290.03 86.0618 291.052 87.9996 292.795 89.2447L295.702 85.176L298.608 81.1073C298.942 81.346 299.339 81.737 299.636 82.3104C299.935 82.886 300.03 83.4467 300.03 83.88H295.03ZM295.702 85.176L292.928 89.3362C293.978 90.036 295.261 90.5395 296.424 90.9274L298.006 86.184L299.587 81.4406C299.159 81.2979 298.851 81.1788 298.642 81.0872C298.417 80.989 298.389 80.9585 298.475 81.0158L295.702 85.176ZM298.006 86.184L296.376 90.9109L300.552 92.3509L302.182 87.624L303.811 82.8971L299.635 81.4571L298.006 86.184ZM302.182 87.624L300.574 92.3584C303.488 93.3481 304.997 94.4479 305.722 95.3238L309.574 92.136L313.426 88.9482C311.078 86.1121 307.659 84.2039 303.789 82.8896L302.182 87.624ZM309.574 92.136L305.782 95.3954C306.398 96.1119 306.926 97.2619 306.926 99.336H311.926H316.926C316.926 95.4581 315.885 91.8081 313.365 88.8766L309.574 92.136ZM311.926 99.336H306.926C306.926 102.148 306.053 103.603 304.783 104.563L307.798 108.552L310.812 112.541C315.046 109.341 316.926 104.652 316.926 99.336H311.926ZM307.798 108.552L304.76 104.58C303.272 105.718 300.54 106.672 295.798 106.672V111.672V116.672C301.615 116.672 306.883 115.546 310.835 112.524L307.798 108.552ZM361.741 81.528V86.528H366.741V81.528H361.741ZM359.341 81.528V76.528H354.341V81.528H359.341ZM359.341 103.128H354.341V108.128H359.341V103.128ZM361.741 103.128H366.741V98.128H361.741V103.128ZM361.741 111V116H366.741V111H361.741ZM343.597 111H338.597V116H343.597V111ZM343.597 103.128V98.128H338.597V103.128H343.597ZM345.901 103.128V108.128H350.901V103.128H345.901ZM345.901 95.208H350.901V90.208H345.901V95.208ZM339.181 95.208V90.208H334.181V95.208H339.181ZM339.181 103.128H334.181V108.128H339.181V103.128ZM341.485 103.128H346.485V98.128H341.485V103.128ZM341.485 111V116H346.485V111H341.485ZM323.341 111H318.341V116H323.341V111ZM323.341 103.128V98.128H318.341V103.128H323.341ZM325.741 103.128V108.128H330.741V103.128H325.741ZM325.741 81.528H330.741V76.528H325.741V81.528ZM323.341 81.528H318.341V86.528H323.341V81.528ZM323.341 73.656V68.656H318.341V73.656H323.341ZM341.485 73.656H346.485V68.656H341.485V73.656ZM341.485 81.528V86.528H346.485V81.528H341.485ZM339.181 81.528V76.528H334.181V81.528H339.181ZM339.181 88.824H334.181V93.824H339.181V88.824ZM345.901 88.824V93.824H350.901V88.824H345.901ZM345.901 81.528H350.901V76.528H345.901V81.528ZM343.597 81.528H338.597V86.528H343.597V81.528ZM343.597 73.656V68.656H338.597V73.656H343.597ZM361.741 73.656H366.741V68.656H361.741V73.656ZM361.741 81.528V76.528H359.341V81.528V86.528H361.741V81.528ZM359.341 81.528H354.341V103.128H359.341H364.341V81.528H359.341ZM359.341 103.128V108.128H361.741V103.128V98.128H359.341V103.128ZM361.741 103.128H356.741V111H361.741H366.741V103.128H361.741ZM361.741 111V106H343.597V111V116H361.741V111ZM343.597 111H348.597V103.128H343.597H338.597V111H343.597ZM343.597 103.128V108.128H345.901V103.128V98.128H343.597V103.128ZM345.901 103.128H350.901V95.208H345.901H340.901V103.128H345.901ZM345.901 95.208V90.208H339.181V95.208V100.208H345.901V95.208ZM339.181 95.208H334.181V103.128H339.181H344.181V95.208H339.181ZM339.181 103.128V108.128H341.485V103.128V98.128H339.181V103.128ZM341.485 103.128H336.485V111H341.485H346.485V103.128H341.485ZM341.485 111V106H323.341V111V116H341.485V111ZM323.341 111H328.341V103.128H323.341H318.341V111H323.341ZM323.341 103.128V108.128H325.741V103.128V98.128H323.341V103.128ZM325.741 103.128H330.741V81.528H325.741H320.741V103.128H325.741ZM325.741 81.528V76.528H323.341V81.528V86.528H325.741V81.528ZM323.341 81.528H328.341V73.656H323.341H318.341V81.528H323.341ZM323.341 73.656V78.656H341.485V73.656V68.656H323.341V73.656ZM341.485 73.656H336.485V81.528H341.485H346.485V73.656H341.485ZM341.485 81.528V76.528H339.181V81.528V86.528H341.485V81.528ZM339.181 81.528H334.181V88.824H339.181H344.181V81.528H339.181ZM339.181 88.824V93.824H345.901V88.824V83.824H339.181V88.824ZM345.901 88.824H350.901V81.528H345.901H340.901V88.824H345.901ZM345.901 81.528V76.528H343.597V81.528V86.528H345.901V81.528ZM343.597 81.528H348.597V73.656H343.597H338.597V81.528H343.597ZM343.597 73.656V78.656H361.741V73.656V68.656H343.597V73.656ZM361.741 73.656H356.741V81.528H361.741H366.741V73.656H361.741ZM373.734 111H368.734V116H373.734V111ZM373.734 103.128V98.128H368.734V103.128H373.734ZM376.134 103.128V108.128H381.134V103.128H376.134ZM376.134 81.528H381.134V76.528H376.134V81.528ZM373.734 81.528H368.734V86.528H373.734V81.528ZM373.734 73.656V68.656H368.734V73.656H373.734ZM391.974 73.656H396.974V68.656H391.974V73.656ZM391.974 81.528V86.528H396.974V81.528H391.974ZM389.574 81.528V76.528H384.574V81.528H389.574ZM389.574 103.128H384.574V108.128H389.574V103.128ZM391.974 103.128H396.974V98.128H391.974V103.128ZM391.974 111V116H396.974V111H391.974ZM373.734 111H378.734V103.128H373.734H368.734V111H373.734ZM373.734 103.128V108.128H376.134V103.128V98.128H373.734V103.128ZM376.134 103.128H381.134V81.528H376.134H371.134V103.128H376.134ZM376.134 81.528V76.528H373.734V81.528V86.528H376.134V81.528ZM373.734 81.528H378.734V73.656H373.734H368.734V81.528H373.734ZM373.734 73.656V78.656H391.974V73.656V68.656H373.734V73.656ZM391.974 73.656H386.974V81.528H391.974H396.974V73.656H391.974ZM391.974 81.528V76.528H389.574V81.528V86.528H391.974V81.528ZM389.574 81.528H384.574V103.128H389.574H394.574V81.528H389.574ZM389.574 103.128V108.128H391.974V103.128V98.128H389.574V103.128ZM391.974 103.128H386.974V111H391.974H396.974V103.128H391.974ZM391.974 111V106H373.734V111V116H391.974V111ZM403.97 103.128V98.128H398.97V103.128H403.97ZM406.37 103.128V108.128H411.37V103.128H406.37ZM406.37 81.528H411.37V76.528H406.37V81.528ZM403.97 81.528H398.97V86.528H403.97V81.528ZM403.97 73.656V68.656H398.97V73.656H403.97ZM434.498 76.344L431.32 80.2036L431.337 80.2177L431.354 80.2316L434.498 76.344ZM434.498 93.576L437.642 97.4636L437.66 97.4497L437.677 97.4356L434.498 93.576ZM419.81 96.216V91.216H414.81V96.216H419.81ZM419.81 103.128H414.81V108.128H419.81V103.128ZM424.418 103.128H429.418V98.128H424.418V103.128ZM424.418 111V116H429.418V111H424.418ZM403.97 111H398.97V116H403.97V111ZM423.506 82.296L419.743 85.5885L419.853 85.7138L419.97 85.8315L423.506 82.296ZM419.81 81.528V76.528H414.81V81.528H419.81ZM419.81 89.4H414.81V94.4H419.81V89.4ZM403.97 103.128V108.128H406.37V103.128V98.128H403.97V103.128ZM406.37 103.128H411.37V81.528H406.37H401.37V103.128H406.37ZM406.37 81.528V76.528H403.97V81.528V86.528H406.37V81.528ZM403.97 81.528H408.97V73.656H403.97H398.97V81.528H403.97ZM403.97 73.656V78.656H425.042V73.656V68.656H403.97V73.656ZM425.042 73.656V78.656C428.533 78.656 430.373 79.424 431.32 80.2036L434.498 76.344L437.677 72.4843C434.271 69.68 429.807 68.656 425.042 68.656V73.656ZM434.498 76.344L431.354 80.2316C431.925 80.6933 432.762 81.8179 432.762 84.936H437.762H442.762C442.762 80.1181 441.423 75.5147 437.642 72.4564L434.498 76.344ZM437.762 84.936H432.762C432.762 88.0467 431.927 89.2158 431.32 89.7163L434.498 93.576L437.677 97.4356C441.421 94.3522 442.762 89.7613 442.762 84.936H437.762ZM434.498 93.576L431.354 89.6884C430.404 90.4563 428.55 91.216 425.042 91.216V96.216V101.216C429.79 101.216 434.24 100.216 437.642 97.4636L434.498 93.576ZM425.042 96.216V91.216H419.81V96.216V101.216H425.042V96.216ZM419.81 96.216H414.81V103.128H419.81H424.81V96.216H419.81ZM419.81 103.128V108.128H424.418V103.128V98.128H419.81V103.128ZM424.418 103.128H419.418V111H424.418H429.418V103.128H424.418ZM424.418 111V106H403.97V111V116H424.418V111ZM403.97 111H408.97V103.128H403.97H398.97V111H403.97ZM421.442 89.4V94.4C423.275 94.4 425.529 93.8718 427.235 91.9896C428.856 90.2008 429.226 88.0077 429.226 86.328H424.226H419.226C419.226 86.6963 419.132 86.0392 419.825 85.2744C420.603 84.4162 421.465 84.4 421.442 84.4V89.4ZM424.226 86.328H429.226V84.6H424.226H419.226V86.328H424.226ZM424.226 84.6H429.226C429.226 82.9354 428.867 80.5862 427.042 78.7605L423.506 82.296L419.97 85.8315C419.542 85.4031 419.35 84.9682 419.274 84.7234C419.204 84.5009 419.226 84.4294 419.226 84.6H424.226ZM423.506 82.296L427.269 79.0035C425.561 77.0519 423.262 76.528 421.442 76.528V81.528V86.528C421.461 86.528 421.25 86.5324 420.91 86.4061C420.539 86.268 420.109 86.0064 419.743 85.5885L423.506 82.296ZM421.442 81.528V76.528H419.81V81.528V86.528H421.442V81.528ZM419.81 81.528H414.81V89.4H419.81H424.81V81.528H419.81ZM419.81 89.4V94.4H421.442V89.4V84.4H419.81V89.4Z" fill="#FFCC00" mask="url(#path-3-outside-2_1003_57)"/>
</g>
<defs>
<filter id="filter0_i_1003_57" x="105.616" y="7.65576" width="238.519" height="49.0161" filterUnits="userSpaceOnUse" color-interpolation-filters="sRGB">
<feFlood flood-opacity="0" result="BackgroundImageFix"/>
<feBlend mode="normal" in="SourceGraphic" in2="BackgroundImageFix" result="shape"/>
<feColorMatrix in="SourceAlpha" type="matrix" values="0 0 0 0 0 0 0 0 0 0 0 0 0 0 0 0 0 0 127 0" result="hardAlpha"/>
<feOffset dx="18" dy="8"/>
<feGaussianBlur stdDeviation="0.5"/>
<feComposite in2="hardAlpha" operator="arithmetic" k2="-1" k3="1"/>
<feColorMatrix type="matrix" values="0 0 0 0 0 0 0 0 0 0 0 0 0 0 0 0 0 0 0.25 0"/>
<feBlend mode="normal" in2="shape" result="effect1_innerShadow_1003_57"/>
</filter>
<filter id="filter1_i_1003_57" x="0" y="67.9839" width="443.762" height="49.688" filterUnits="userSpaceOnUse" color-interpolation-filters="sRGB">
<feFlood flood-opacity="0" result="BackgroundImageFix"/>
<feBlend mode="normal" in="SourceGraphic" in2="BackgroundImageFix" result="shape"/>
<feColorMatrix in="SourceAlpha" type="matrix" values="0 0 0 0 0 0 0 0 0 0 0 0 0 0 0 0 0 0 127 0" result="hardAlpha"/>
<feOffset dx="18" dy="8"/>
<feGaussianBlur stdDeviation="0.5"/>
<feComposite in2="hardAlpha" operator="arithmetic" k2="-1" k3="1"/>
<feColorMatrix type="matrix" values="0 0 0 0 0 0 0 0 0 0 0 0 0 0 0 0 0 0 0.25 0"/>
<feBlend mode="normal" in2="shape" result="effect1_innerShadow_1003_57"/>
</filter>
</defs>
</svg>
